# This file uses centimeters as units for non-parametric coordinates.

mtllib mirror1.mtl
g default
v -44.043129 0.074902 24.444014
v -0.335033 -0.275551 -1.729063
v 72.198692 0.074902 -60.405697
v -41.589252 7.425401 27.084255
v 1.691404 7.165103 -1.722088
v 74.652550 7.425401 -57.765461
v -8.708147 15.476823 3.771682
v 1.249822 15.126379 -0.023839
v 7.884909 15.476823 -7.394597
vn 0.460722 -0.432244 0.775177
vn 0.575543 -0.181312 0.797419
vn 0.479547 -0.375479 0.793127
vn 0.479547 -0.375479 0.793127
vn 0.575543 -0.181312 0.797419
vn 0.585997 -0.148614 0.796568
vn 0.566218 -0.439492 0.697312
vn 0.573278 -0.409455 0.709717
vn 0.575543 -0.181312 0.797419
vn 0.575543 -0.181312 0.797419
vn 0.573278 -0.409455 0.709717
vn 0.585997 -0.148614 0.796568
vn 0.585997 -0.148614 0.796568
vn 0.583123 -0.098381 0.806405
vn 0.479547 -0.375479 0.793127
vn 0.479547 -0.375479 0.793127
vn 0.583123 -0.098381 0.806405
vn 0.264552 0.733255 0.626378
vn 0.585997 -0.148614 0.796568
vn 0.573278 -0.409455 0.709717
vn 0.583123 -0.098381 0.806405
vn 0.583123 -0.098381 0.806405
vn 0.573278 -0.409455 0.709717
vn 0.401559 0.823554 0.400636
s off
g polySurface2 Mesh1
usemtl initialShadingGroup
f 1//1 2//2 4//3
f 4//4 2//5 5//6
f 3//7 6//8 2//9
f 2//10 6//11 5//12
f 5//13 8//14 4//15
f 4//16 8//17 7//18
f 5//19 6//20 8//21
f 8//22 6//23 9//24
