# This file uses centimeters as units for non-parametric coordinates.

mtllib slab1ss.mtl
g default
v 0.590817 -1.927391 -0.246193
v -0.969133 -2.178219 -0.319901
v -1.213827 -2.219380 -0.259417
v 0.499053 -0.812962 -0.308818
v 0.407294 0.872780 -0.109037
v -0.540912 0.936929 -0.080217
v 0.755257 -0.397137 -0.238869
v 0.804929 -1.931725 -0.239819
v 0.743751 -1.009563 -0.282413
v 0.743751 0.780194 -0.060473
v -0.326799 -2.056023 -0.479115
v -0.540912 -0.920397 -0.588460
v -0.020927 -1.207338 -0.429306
v 0.101422 -1.847946 -0.362939
v -0.693846 -0.761338 -0.559703
v -1.362035 -0.393109 -0.146862
v -1.336179 -1.433386 -0.272116
v -0.479738 -2.048804 -0.489727
v -0.632672 -1.097502 -0.590714
v -1.363255 0.941440 0.056224
v -0.210404 0.892905 -0.294393
v 0.111571 0.903985 -0.147837
v -0.571497 -0.178263 -0.366494
v 0.009658 0.329185 -0.324680
vt 0.496094 0.199219
vt 0.453125 0.203125
vt 0.359375 0.164063
vt 0.332031 0.195313
vt 0.328125 0.109375
vt 0.312500 0.062500
vt 0.332031 0.050781
vt 0.269531 0.105469
vt 0.480469 0.093750
vt 0.496094 0.058594
vt 0.503906 0.000000
vt 0.230469 0.031250
vt 0.246094 0.000000
vt 0.398438 0.039063
vt 0.464844 0.070312
vt 0.359375 0.000000
vt 0.414063 0.000000
vt 0.476563 0.000000
vt 0.339844 0.000000
vt 0.320312 0.039062
vt 0.277344 0.000000
vt 0.296875 0.183594
vt 0.402344 0.144531
vt 0.410156 0.179688
vn -0.244142 -0.292174 0.924678
vn -0.200569 -0.303898 0.931353
vn -0.214330 -0.211635 0.953558
vn -0.244142 -0.292174 0.924678
vn 0.255831 -0.488516 0.834208
vn 0.382429 -0.221651 0.897005
vn -0.199116 -0.131819 0.971070
vn -0.167309 -0.105227 0.980273
vn -0.244142 -0.292174 0.924678
vn -0.288033 0.117610 0.950371
vn -0.286676 0.092670 0.953535
vn -0.214330 -0.211635 0.953558
vn -0.286676 0.092670 0.953535
vn -0.167309 -0.105227 0.980273
vn -0.199116 -0.131819 0.971070
vn -0.128022 0.021609 0.991536
vn 0.023605 -0.107670 0.993906
vn -0.167309 -0.105227 0.980273
vn -0.200569 -0.303898 0.931353
vn -0.244142 -0.292174 0.924678
vn 0.382429 -0.221651 0.897005
vn 0.174847 0.114871 0.977872
vn -0.200569 -0.303898 0.931353
vn 0.382429 -0.221651 0.897005
vn 0.122324 0.220026 0.967794
vn 0.324824 0.218638 0.920156
vn 0.269262 0.227772 0.935745
vn -0.288033 0.117610 0.950371
vn 0.324824 0.218638 0.920156
vn 0.122324 0.220026 0.967794
vn -0.214330 -0.211635 0.953558
vn -0.200569 -0.303898 0.931353
vn 0.324824 0.218638 0.920156
vn 0.382429 -0.221651 0.897005
vn 0.250124 -0.514436 0.820240
vn 0.677014 -0.311397 0.666847
vn 0.382429 -0.221651 0.897005
vn 0.255831 -0.488516 0.834208
vn 0.250124 -0.514436 0.820240
vn -0.252530 -0.031522 0.967075
vn 0.255831 -0.488516 0.834208
vn -0.244142 -0.292174 0.924678
vn -0.130888 -0.110147 0.985259
vn -0.385762 -0.365357 0.847173
vn -0.252530 -0.031522 0.967075
vn -0.367247 -0.379833 0.849033
vn -0.385762 -0.365357 0.847173
vn -0.130888 -0.110147 0.985259
vn -0.130888 -0.110147 0.985259
vn -0.252530 -0.031522 0.967075
vn -0.167309 -0.105227 0.980273
vn -0.167309 -0.105227 0.980273
vn 0.023605 -0.107670 0.993906
vn -0.130888 -0.110147 0.985259
vn -0.214330 -0.211635 0.953558
vn -0.286676 0.092670 0.953535
vn -0.199116 -0.131819 0.971070
vn -0.128022 0.021609 0.991536
vn 0.259359 0.042994 0.964823
vn 0.023605 -0.107670 0.993906
vn -0.286676 0.092670 0.953535
vn -0.128022 0.021609 0.991536
vn -0.167309 -0.105227 0.980273
vn 0.269262 0.227772 0.935745
vn 0.174847 0.114871 0.977872
vn 0.167160 0.151354 0.974243
vn 0.269262 0.227772 0.935745
vn 0.324824 0.218638 0.920156
vn 0.174847 0.114871 0.977872
vn 0.324824 0.218638 0.920156
vn -0.200569 -0.303898 0.931353
vn 0.174847 0.114871 0.977872
vn -0.288033 0.117610 0.950371
vn -0.214330 -0.211635 0.953558
vn 0.324824 0.218638 0.920156
vn -0.214330 -0.211635 0.953558
vn -0.199116 -0.131819 0.971070
vn -0.244142 -0.292174 0.924678
vn -0.252530 -0.031522 0.967075
vn -0.385762 -0.365357 0.847173
vn -0.385149 -0.578402 0.719104
vn -0.244142 -0.292174 0.924678
vn -0.167309 -0.105227 0.980273
vn -0.252530 -0.031522 0.967075
vn -0.252530 -0.031522 0.967075
vn -0.385149 -0.578402 0.719104
vn 0.255831 -0.488516 0.834208
s off
g pasted__pasted__Mesh pasted__group group1
usemtl pasted__pasted__slab1ss_initialShadingGroup
f 23/5/1 15/6/2 12/7/3
f 23/5/4 21/3/5 16/8/6
f 13/14/7 4/15/8 23/5/9
f 11/16/10 14/17/11 12/7/12
f 14/17/13 4/15/14 13/14/15
f 1/18/16 9/10/17 4/15/18
f 15/6/19 23/5/20 16/8/21
f 17/12/22 15/6/23 16/8/24
f 18/19/25 19/20/26 2/21/27
f 11/16/28 19/20/29 18/19/30
f 12/7/31 15/6/32 19/20/33
f 16/8/34 6/4/35 20/22/36
f 16/8/37 21/3/38 6/4/39
f 24/23/40 21/3/41 23/5/42
f 7/9/43 5/2/44 24/23/45
f 10/1/46 5/2/47 7/9/48
f 7/9/49 24/23/50 4/15/51
f 4/15/52 9/10/53 7/9/54
f 12/7/55 14/17/56 13/14/57
f 1/18/58 8/11/59 9/10/60
f 14/17/61 1/18/62 4/15/63
f 2/21/64 17/12/65 3/13/66
f 2/21/67 19/20/68 17/12/69
f 19/20/70 15/6/71 17/12/72
f 11/16/73 12/7/74 19/20/75
f 12/7/76 13/14/77 23/5/78
f 24/23/79 5/2/80 22/24/81
f 23/5/82 4/15/83 24/23/84
f 24/23/85 22/24/86 21/3/87
